#!OML:ASF X:\für Bonn\!DataBase\2005_08_10_Bjorn_Final\c3d\bjorn.ASF
:FULLY-SPECIFIED
:DEGREES
31
root 19.2936 19.1657 0.475228 102.584 -92.1163 -108.729
lowerback 10.9248 1.32189 -5.11138
upperback 16.4977 0.355709 -1.4545
thorax 11.8223 -0.863431 1.12437
lowerneck -2.12697 0.332181 1.55652
upperneck 22.3642 0.263445 -3.25337
head 7.17985 -0.258471 -1.33615
rclavicle 5.1684e-015 9.54166e-015
rhumerus -25.3428 -15.1234 -84.0069
rradius 28.59
rwrist -5.83508
rhand -10.56 8.79691
rfingers 7.12502
rthumb 15.4443 -20.6061
lclavicle 5.1684e-015 9.54166e-015
lhumerus -7.71983 -11.4059 77.5983
lradius 45.6834
lwrist -10.0335
lhand -24.3785 -5.54214
lfingers 7.12502
lthumb 2.1118 24.4272
rfemur -21.5244 -8.16715 12.5924
rtibia 42.9738
rfoot -7.20081 15.8032
rtoes -2.59011
lfemur -3.29926 10.1949 -21.5673
ltibia 28.7089
lfoot -12.0145 -8.03791
ltoes -5.41969
32
root 19.2216 19.1699 0.481931 103.697 -92.0796 -109.805
lowerback 11.2595 1.34587 -4.95992
upperback 16.6901 0.33249 -1.33022
thorax 11.865 -0.884034 1.17085
lowerneck -2.18446 0.2498 1.5159
upperneck 22.1385 0.179044 -3.31532
head 7.11362 -0.299585 -1.35188
rclavicle 1.59028e-014 3.33958e-014
rhumerus -25.043 -14.4473 -84.0714
rradius 28.9396
rwrist -6.23404
rhand -10.7327 8.95322
rfingers 7.12502
rthumb 15.278 -20.4625
lclavicle 1.59028e-014 3.33958e-014
lhumerus -7.38139 -11.6057 77.3923
lradius 46.4964
lwrist -9.45232
lhand -25.0043 -5.74449
lfingers 7.12502
lthumb 1.50741 24.2299
rfemur -21.6878 -8.14272 12.7561
rtibia 41.647
rfoot -7.10067 16.4373
rtoes -2.90843
lfemur -2.93615 10.1875 -21.5043
ltibia 28.4144
lfoot -12.0675 -8.08774
ltoes -5.24441
33
root 19.1501 19.174 0.488244 104.7 -92.06 -110.789
lowerback 11.6265 1.37385 -4.81751
upperback 16.886 0.310814 -1.2049
thorax 11.895 -0.905655 1.2237
lowerneck -2.18291 0.156548 1.54553
upperneck 21.8508 0.0976154 -3.50238
head 7.01664 -0.342558 -1.41894
rclavicle 3.18055e-015 1.39149e-014
rhumerus -24.745 -13.8275 -84.1059
rradius 29.2982
rwrist -6.5541
rhand -10.8928 9.16352
rfingers 7.12502
rthumb 15.1237 -20.2639
lclavicle 3.18055e-015 1.39149e-014
lhumerus -7.06018 -11.7411 77.2069
lradius 47.2798
lwrist -8.95103
lhand -25.4619 -6.00531
lfingers 7.12502
lthumb 1.06546 23.9718
rfemur -21.828 -8.13234 12.8987
rtibia 40.3917
rfoot -7.14021 17.0833
rtoes -4.2674
lfemur -2.54173 10.1728 -21.4581
ltibia 28.0924
lfoot -12.1214 -8.10259
ltoes -5.25085
34
root 19.0791 19.1782 0.494175 105.78 -92.0771 -111.842
lowerback 11.9888 1.41313 -4.68526
upperback 17.0981 0.304186 -1.10188
thorax 11.9487 -0.920875 1.25703
lowerneck -2.17927 0.0445025 1.63509
upperneck 21.5093 -0.0141871 -3.68563
head 6.90095 -0.393396 -1.49573
rclavicle 3.97569e-016 4.77083e-015
rhumerus -24.3448 -13.3214 -84.1674
rradius 29.5868
rwrist -6.81768
rhand -11.0781 9.4057
rfingers 7.12502
rthumb 14.9453 -20.0351
lclavicle 3.97569e-016 4.77083e-015
lhumerus -6.71702 -11.9638 76.971
lradius 48.0653
lwrist -8.45482
lhand -25.7868 -5.9906
lfingers 7.12502
lthumb 0.751695 23.9878
rfemur -21.9667 -8.09976 12.9901
rtibia 39.2075
rfoot -7.0159 17.6252
rtoes -4.60731
lfemur -2.15138 10.1553 -21.4486
ltibia 27.7524
lfoot -12.1548 -8.14408
ltoes -5.12292
35
root 19.009 19.1803 0.499388 107.11 -92.1179 -113.172
lowerback 12.3789 1.44062 -4.57952
upperback 17.329 0.27485 -0.989471
thorax 12.0135 -0.953609 1.31527
lowerneck -2.14942 -0.0565149 1.70319
upperneck 21.1193 -0.105947 -3.88835
head 6.76563 -0.436958 -1.57267
rclavicle 5.96354e-016 5.96354e-015
rhumerus -23.838 -12.7512 -84.2243
rradius 29.8396
rwrist -7.06003
rhand -11.2244 9.53362
rfingers 7.12502
rthumb 14.8043 -19.9176
lclavicle 5.96354e-016 5.96354e-015
lhumerus -6.37201 -12.0732 76.7835
lradius 48.8284
lwrist -8.09279
lhand -26.0831 -5.99634
lfingers 7.12502
lthumb 0.465472 23.9829
rfemur -22.0575 -8.08367 13.0544
rtibia 38.0992
rfoot -6.94567 17.8676
rtoes -5.00512
lfemur -1.73334 10.1207 -21.454
ltibia 27.4106
lfoot -12.1535 -8.18726
ltoes -4.99536
36
root 18.9388 19.182 0.503286 108.498 -92.1809 -114.539
lowerback 12.7462 1.47352 -4.49231
upperback 17.5603 0.25375 -0.876437
thorax 12.0934 -0.984799 1.38448
lowerneck -2.18377 -0.129661 1.73232
upperneck 20.8406 -0.179185 -3.98319
head 6.67892 -0.468757 -1.60858
rclavicle -1.49089e-014 -1.98785e-014
rhumerus -23.2183 -12.237 -84.262
rradius 29.915
rwrist -7.1779
rhand -11.3603 9.68591
rfingers 7.12502
rthumb 14.6734 -19.7749
lclavicle -1.49089e-014 -1.98785e-014
lhumerus -6.04052 -12.1847 76.5944
lradius 49.5895
lwrist -7.73461
lhand -26.2326 -5.75146
lfingers 7.12502
lthumb 0.32109 24.228
rfemur -22.1446 -8.05097 13.0913
rtibia 37.0743
rfoot -6.79526 18.0471
rtoes -4.69833
lfemur -1.34764 10.1254 -21.4693
ltibia 27.0825
lfoot -12.1754 -8.27938
ltoes -4.92906
37
root 18.8692 19.1827 0.506923 110.198 -92.2286 -116.231
lowerback 13.1309 1.50928 -4.37005
upperback 17.8033 0.234492 -0.755124
thorax 12.1797 -1.01284 1.44335
lowerneck -2.1667 -0.208724 1.72861
upperneck 20.4828 -0.267567 -4.01746
head 6.55785 -0.503722 -1.6188
rclavicle -5.96354e-016 1.98785e-015
rhumerus -22.5353 -11.7364 -84.2977
rradius 29.9235
rwrist -7.28343
rhand -11.4987 9.82955
rfingers 7.12502
rthumb 14.54 -19.6409
lclavicle -5.96354e-016 1.98785e-015
lhumerus -5.71333 -12.3407 76.4115
lradius 50.3024
lwrist -7.15795
lhand -26.4456 -5.76371
lfingers 7.12502
lthumb 0.115327 24.216
rfemur -22.1943 -8.0124 13.1435
rtibia 36.1388
rfoot -6.60314 18.1399
rtoes -3.99658
lfemur -0.96604 10.0661 -21.4641
ltibia 26.7929
lfoot -12.1798 -8.34498
ltoes -4.52851
38
root 18.8002 19.1803 0.509004 111.898 -92.3212 -117.901
lowerback 13.5078 1.53356 -4.28913
upperback 18.04 0.199033 -0.636441
thorax 12.2662 -1.05364 1.52319
lowerneck -2.14333 -0.288879 1.75318
upperneck 20.1253 -0.347133 -4.13045
head 6.43597 -0.538668 -1.65839
rclavicle -3.57812e-015 -6.95746e-015
rhumerus -21.7996 -11.2341 -84.312
rradius 29.9219
rwrist -7.35488
rhand -11.6033 9.92587
rfingers 7.12502
rthumb 14.4392 -19.5518
lclavicle -3.57812e-015 -6.95746e-015
lhumerus -5.44576 -12.4353 76.2602
lradius 51.0392
lwrist -6.64765
lhand -26.7142 -5.8472
lfingers 7.12502
lthumb -0.144024 24.1325
rfemur -22.211 -7.96535 13.1442
rtibia 35.3006
rfoot -6.4573 18.1533
rtoes -3.24977
lfemur -0.64046 10.0203 -21.5005
ltibia 26.5611
lfoot -12.2484 -8.42905
ltoes -4.43639
